<?xml version="1.0" standalone="no"?>
<!DOCTYPE svg PUBLIC "-//W3C//DTD SVG 20010904//EN"
 "http://www.w3.org/TR/2001/REC-SVG-20010904/DTD/svg10.dtd">
<svg version="1.0" xmlns="http://www.w3.org/2000/svg"
 width="170.000000pt" height="170.000000pt" viewBox="0 0 170.000000 170.000000"
 preserveAspectRatio="xMidYMid meet">
<metadata>
Created by potrace 1.14, written by Peter Selinger 2001-2017
</metadata>
<g transform="translate(0.000000,170.000000) scale(0.100000,-0.100000)"
fill="#000000" stroke="none">
<path d="M184 1601 c-59 -27 -93 -76 -105 -153 -6 -40 -9 -293 -7 -649 3 -649
1 -624 71 -686 20 -18 53 -37 74 -42 52 -15 1224 -15 1276 0 52 14 114 72 127
117 6 23 10 270 10 660 0 538 -2 628 -15 659 -21 50 -42 72 -90 94 -37 17 -80
19 -670 19 -594 0 -632 -2 -671 -19z m812 -258 c86 -46 114 -105 114 -242 0
-104 -14 -152 -57 -194 -18 -17 -33 -36 -33 -40 0 -4 15 -21 34 -37 61 -54 71
-88 71 -240 -1 -148 -10 -182 -61 -234 -53 -52 -84 -59 -276 -64 l-178 -4 0
542 0 542 173 -4 c154 -3 176 -5 213 -25z"/>
<path d="M780 1070 l0 -150 39 0 c98 0 131 39 131 154 0 115 -23 145 -112 146
l-58 0 0 -150z"/>
<path d="M788 774 c-5 -4 -8 -81 -8 -171 l0 -163 68 0 c55 0 73 4 90 20 20 19
22 30 22 140 0 110 -2 121 -23 146 -20 23 -34 28 -83 32 -32 2 -62 0 -66 -4z"/>
</g>
</svg>
